<svg xmlns="http://www.w3.org/2000/svg" width="65" height="65" fill="none"><rect width="65" height="65" fill="#766EBF" rx="13"/><path fill="#1D1B20" d="M15.844 46.313c2.302-1.76 4.875-3.149 7.719-4.164 2.843-1.016 5.823-1.524 8.937-1.524 3.115 0 6.094.508 8.938 1.524 2.843 1.015 5.416 2.403 7.718 4.164 1.58-1.85 2.81-3.95 3.69-6.297.88-2.347 1.32-4.853 1.32-7.516 0-6.003-2.11-11.115-6.33-15.336-4.22-4.22-9.332-6.33-15.336-6.33-6.003 0-11.115 2.11-15.336 6.33-4.22 4.22-6.33 9.333-6.33 15.336 0 2.663.44 5.169 1.32 7.516a20.934 20.934 0 0 0 3.69 6.297ZM32.5 35.209c-2.663 0-4.909-.915-6.737-2.743-1.828-1.828-2.742-4.073-2.742-6.737 0-2.663.914-4.908 2.742-6.737 1.828-1.828 4.074-2.742 6.737-2.742 2.663 0 4.909.914 6.737 2.742 1.828 1.829 2.742 4.074 2.742 6.737 0 2.664-.914 4.91-2.742 6.737-1.828 1.828-4.074 2.743-6.737 2.743Zm0 24.375c-3.746 0-7.267-.711-10.562-2.133-3.296-1.422-6.162-3.352-8.6-5.79-2.437-2.437-4.367-5.303-5.788-8.598-1.422-3.295-2.133-6.816-2.133-10.563 0-3.746.71-7.267 2.133-10.562 1.421-3.295 3.351-6.162 5.789-8.6 2.437-2.437 5.303-4.366 8.599-5.788 3.295-1.422 6.816-2.133 10.562-2.133 3.747 0 7.267.71 10.563 2.133 3.295 1.422 6.161 3.351 8.598 5.789 2.438 2.437 4.368 5.304 5.79 8.599 1.422 3.295 2.132 6.816 2.132 10.562 0 3.747-.71 7.268-2.132 10.563-1.422 3.295-3.352 6.161-5.79 8.599-2.437 2.437-5.303 4.367-8.598 5.789-3.296 1.422-6.816 2.133-10.563 2.133Z"/></svg>