<svg width="112" height="107" viewBox="0 0 112 107" fill="none" xmlns="http://www.w3.org/2000/svg">
<path d="M74.2813 18.9902C74.2813 17.374 74.9233 15.824 76.0661 14.6812C77.2089 13.5384 78.7589 12.8964 80.375 12.8964H86.4688V6.80266C86.4688 5.1865 87.1108 3.63653 88.2536 2.49373C89.3964 1.35093 90.9464 0.70891 92.5625 0.70891C94.1787 0.70891 95.7287 1.35093 96.8715 2.49373C98.0143 3.63653 98.6563 5.1865 98.6563 6.80266V12.8964H104.75C106.366 12.8964 107.916 13.5384 109.059 14.6812C110.202 15.824 110.844 17.374 110.844 18.9902C110.844 20.6063 110.202 22.1563 109.059 23.2991C107.916 24.4419 106.366 25.0839 104.75 25.0839H98.6563V31.1777C98.6563 32.7938 98.0143 34.3438 96.8715 35.4866C95.7287 36.6294 94.1787 37.2714 92.5625 37.2714C90.9464 37.2714 89.3964 36.6294 88.2536 35.4866C87.1108 34.3438 86.4688 32.7938 86.4688 31.1777V25.0839H80.375C78.7589 25.0839 77.2089 24.4419 76.0661 23.2991C74.9233 22.1563 74.2813 20.6063 74.2813 18.9902ZM110.539 97.1848C103.409 84.9011 92.3483 75.3777 79.1419 70.1512C85.0908 65.7083 89.6292 59.641 92.211 52.6794C92.4883 51.9287 92.6151 51.1308 92.5841 50.3311C92.5531 49.5315 92.3649 48.7457 92.0302 48.0188C91.6956 47.2919 91.221 46.638 90.6336 46.0945C90.0463 45.551 89.3576 45.1285 88.6069 44.8512C87.8563 44.5738 87.0584 44.447 86.2587 44.478C85.459 44.509 84.6733 44.6972 83.9464 45.0319C83.2195 45.3666 82.5656 45.8411 82.0221 46.4285C81.4786 47.0159 81.0561 47.7045 80.7787 48.4552C79.0131 53.22 75.9094 57.3737 71.8404 60.4174C67.7714 63.4611 62.9102 65.2652 57.8407 65.6132C52.7712 65.9612 47.7091 64.8381 43.2624 62.3789C38.8156 59.9197 35.1735 56.229 32.7734 51.7502C30.3733 47.2713 29.3174 42.1947 29.7324 37.1303C30.1475 32.0659 32.0158 27.229 35.1131 23.2006C38.2104 19.1723 42.4048 16.1238 47.1926 14.4214C51.9804 12.719 57.1578 12.4351 62.103 13.6038C63.6756 13.9751 65.3313 13.7065 66.7059 12.8572C68.0805 12.0079 69.0616 10.6475 69.4333 9.07496C69.8051 7.50247 69.5371 5.84672 68.6882 4.4718C67.8394 3.09689 66.4792 2.11539 64.9069 1.74314C56.2778 -0.305855 47.2064 0.680279 39.2192 4.53557C31.232 8.39087 24.8167 14.88 21.053 22.9107C17.2893 30.9415 16.4069 40.0236 18.5545 48.6287C20.702 57.2337 25.7483 64.8363 32.8441 70.1569C19.6443 75.3844 8.58957 84.905 1.46227 97.1836C0.653231 98.5825 0.432954 100.245 0.849884 101.807C1.26681 103.368 2.2868 104.7 3.68552 105.509C5.08424 106.318 6.74714 106.539 8.30848 106.122C9.86982 105.706 11.2017 104.686 12.0113 103.287C16.4707 95.5671 22.8833 89.1565 30.6049 84.6996C38.3265 80.2426 47.0851 77.8963 56.0006 77.8964C64.9162 77.8965 73.6747 80.2429 81.3962 84.7C89.1178 89.1571 95.5303 95.5678 99.9896 103.288C100.8 104.685 102.131 105.704 103.692 106.12C105.253 106.536 106.915 106.315 108.313 105.507C109.711 104.698 110.731 103.367 111.148 101.806C111.566 100.246 111.346 98.5836 110.539 97.1848Z" fill="black"/>
</svg>
