<svg xmlns="http://www.w3.org/2000/svg" width="65" height="65" fill="none"><rect width="65" height="65" fill="#766EBF" rx="13"/><path fill="#1D1B20" d="M32.5 46.042c.767 0 1.41-.26 1.93-.779.519-.519.778-1.162.778-1.93 0-.767-.26-1.41-.778-1.93-.52-.518-1.163-.778-1.93-.778-.767 0-1.41.26-1.93.779-.519.519-.778 1.162-.778 1.93 0 .767.26 1.41.778 1.93.52.518 1.163.778 1.93.778Zm-2.708-10.833h5.416v-16.25h-5.416v16.25ZM32.5 59.584c-3.746 0-7.267-.711-10.562-2.133-3.296-1.422-6.162-3.352-8.6-5.79-2.437-2.437-4.367-5.303-5.788-8.598-1.422-3.295-2.133-6.816-2.133-10.563 0-3.746.71-7.267 2.133-10.562 1.421-3.295 3.351-6.162 5.789-8.6 2.437-2.437 5.303-4.366 8.599-5.788 3.295-1.422 6.816-2.133 10.562-2.133 3.747 0 7.267.71 10.563 2.133 3.295 1.422 6.161 3.351 8.598 5.789 2.438 2.437 4.368 5.304 5.79 8.599 1.422 3.295 2.132 6.816 2.132 10.562 0 3.747-.71 7.268-2.132 10.563-1.422 3.295-3.352 6.161-5.79 8.599-2.437 2.437-5.303 4.367-8.598 5.789-3.296 1.422-6.816 2.133-10.563 2.133Z"/></svg>