<svg width="100" height="101" viewBox="0 0 100 101" fill="none" xmlns="http://www.w3.org/2000/svg">
<path d="M58.8389 50.5528L98.1695 11.2222C99.3416 10.0501 100 8.46037 100 6.80276C100 5.14515 99.3416 3.55543 98.1695 2.38332C96.9974 1.21122 95.4076 0.552734 93.75 0.552734C92.0924 0.552734 90.5027 1.21122 89.3306 2.38332L50 41.7139L10.6695 2.38332C9.49735 1.21122 7.90763 0.552734 6.25002 0.552734C4.59241 0.552734 3.0027 1.21122 1.83059 2.38332C0.658483 3.55543 0 5.14515 0 6.80276C0 8.46037 0.658483 10.0501 1.83059 11.2222L41.1612 50.5528L1.83059 89.8833C0.658483 91.0554 7.56665e-08 92.6451 9.31323e-08 94.3028C1.10598e-07 95.9604 0.658483 97.5501 1.83059 98.7222C3.0027 99.8943 4.59241 100.553 6.25002 100.553C7.90763 100.553 9.49735 99.8943 10.6695 98.7222L50 59.3916L89.3306 98.7222C90.5027 99.8943 92.0924 100.553 93.75 100.553C95.4076 100.553 96.9974 99.8943 98.1695 98.7222C99.3416 97.5501 100 95.9604 100 94.3028C100 92.6451 99.3416 91.0554 98.1695 89.8833L58.8389 50.5528Z" fill="black"/>
</svg>
