<svg width="105" height="99" viewBox="0 0 105 99" fill="none" xmlns="http://www.w3.org/2000/svg">
<path d="M103.208 16.6213L89.9224 4.45184C88.0916 2.7625 84.4386 3.35056 81.8026 5.74946L69.6335 16.8176L52.8921 0.952637H0.75V98.1526H82.7952V41.2625L101.758 24.0182C104.387 21.6271 105.045 18.3048 103.208 16.6213ZM54.2895 13.6343L63.518 22.3804L58.4708 26.975H54.2895V13.6343ZM56.2033 60.7472L37.8495 67.5308L33.9036 63.9169L41.4025 47.1858L56.2033 60.7472ZM74.1545 90.2746H9.38213V8.8307H47.813V32.8838H51.9698L47.0568 37.3511H18.5979V41.2936H42.7242L38.8347 44.8307L34.8546 53.7021H18.5979V57.6455H33.0867L27.5219 70.055H18.5979V73.9975H64.9611V70.055H39.9604L58.7754 63.1004L64.7662 57.6465H64.9611V57.4754L74.1556 49.1152L74.1545 90.2746Z" fill="black"/>
</svg>
