<svg width="24" height="25" viewBox="0 0 24 25" fill="none" xmlns="http://www.w3.org/2000/svg">
<rect y="0.552734" width="24" height="24" rx="12" fill="#A7A3CC"/>
<path d="M5 19.5527H6.425L16.2 9.77773L14.775 8.35273L5 18.1277V19.5527ZM3 21.5527V17.3027L16.2 4.12773C16.4 3.9444 16.6208 3.80273 16.8625 3.70273C17.1042 3.60273 17.3583 3.55273 17.625 3.55273C17.8917 3.55273 18.15 3.60273 18.4 3.70273C18.65 3.80273 18.8667 3.95273 19.05 4.15273L20.425 5.55273C20.625 5.73607 20.7708 5.95273 20.8625 6.20273C20.9542 6.45273 21 6.70273 21 6.95273C21 7.2194 20.9542 7.47357 20.8625 7.71523C20.7708 7.9569 20.625 8.17773 20.425 8.37773L7.25 21.5527H3ZM15.475 9.07773L14.775 8.35273L16.2 9.77773L15.475 9.07773Z" fill="#1D1B20"/>
</svg>
