<svg width="71" height="81" viewBox="0 0 71 81" fill="none" xmlns="http://www.w3.org/2000/svg">
<path d="M41.2927 7.14185H18.0023C16.458 7.14185 14.977 7.84009 13.8851 9.08298C12.7931 10.3259 12.1797 12.0116 12.1797 13.7693V66.7889C12.1797 68.5466 12.7931 70.2323 13.8851 71.4752C14.977 72.7181 16.458 73.4164 18.0023 73.4164H52.9379C54.4822 73.4164 55.9632 72.7181 57.0552 71.4752C58.1471 70.2323 58.7606 68.5466 58.7606 66.7889V27.0242L41.2927 7.14185Z" stroke="black" stroke-width="2" stroke-linecap="round" stroke-linejoin="round"/>
<path d="M41.292 7.14185V27.025H58.7598" stroke="black" stroke-width="2" stroke-linecap="round" stroke-linejoin="round"/>
<path d="M47.1147 43.5926H23.8242" stroke="black" stroke-width="2" stroke-linecap="round" stroke-linejoin="round"/>
<path d="M47.1147 56.8475H23.8242" stroke="black" stroke-width="2" stroke-linecap="round" stroke-linejoin="round"/>
<path d="M29.6468 30.3377H26.7355H23.8242" stroke="black" stroke-width="2" stroke-linecap="round" stroke-linejoin="round"/>
</svg>
