<svg xmlns="http://www.w3.org/2000/svg" width="65" height="65" fill="none"><rect width="65" height="65" fill="#766EBF" rx="13"/><path fill="#1D1B20" d="M10.833 54.167c-1.49 0-2.764-.53-3.825-1.591-1.06-1.061-1.591-2.336-1.591-3.826v-32.5c0-1.49.53-2.764 1.59-3.825 1.062-1.061 2.337-1.591 3.826-1.591h16.25L32.5 16.25h21.667c1.49 0 2.764.53 3.825 1.591 1.061 1.061 1.591 2.336 1.591 3.826V48.75c0 1.49-.53 2.765-1.59 3.826-1.062 1.06-2.337 1.59-3.826 1.59H10.833Zm0-5.417h43.334V21.667H30.266l-5.417-5.417H10.833v32.5Z"/></svg>