<svg width="130" height="111" viewBox="0 0 130 111" fill="none" xmlns="http://www.w3.org/2000/svg">
<path d="M45.3172 55.5527C59.6781 55.5527 71.3172 43.24 71.3172 28.0527C71.3172 12.8654 59.6781 0.552734 45.3172 0.552734C31.1391 0.552734 19.5 12.8654 19.5 28.0527C19.5 43.24 31.1391 55.5527 45.3172 55.5527ZM55.7984 65.8652H35.2016C15.7645 65.8652 0 82.5586 0 103.119C0 107.223 3.1525 110.553 7.04031 110.553H65.2153C64.9622 109.364 64.9248 108.123 65.1578 106.892L68.0584 91.5498C68.4531 89.4609 69.4145 87.5623 70.8372 86.0584L80.124 76.2357C73.7953 69.8184 65.2438 65.8652 55.7984 65.8652ZM75.4406 90.916C74.93 91.4557 74.582 92.1439 74.4404 92.8932L71.5398 108.235C71.2843 109.586 72.4118 110.779 73.6909 110.51L88.1981 107.44C88.9054 107.29 89.5554 106.923 90.0658 106.383L115.517 79.4629L100.89 63.992L75.4406 90.916ZM127.867 55.4883L123.581 50.9529C120.725 47.9322 116.096 47.9322 113.24 50.9529L105.495 59.1471L120.122 74.618L127.867 66.426C130.711 63.3945 130.711 58.4961 127.867 55.4883Z" fill="black"/>
</svg>
